<svg 
  width="16" 
  height="16" 
  viewBox="0 0 24 24" 
  fill="none" 
  xmlns="http://www.w3.org/2000/svg">
  <path 
    fill-rule="evenodd" 
    clip-rule="evenodd" 
    d="M12 0C5.37 0 0 5.37 0 12C0 17.3025 3.43875 21.8145 8.20725 23.5455C8.80425 23.6475 9.02175 23.289 9.02175 22.9793C9.02175 22.7063 9.0105 22.0395 9.0045 21.207C5.67225 21.8625 4.96725 19.869 4.96725 19.869C4.4385 18.5543 3.675 18.2138 3.675 18.2138C2.60775 17.5455 3.75675 17.5613 3.75675 17.5613C4.93275 17.6423 5.556 18.753 5.556 18.753C6.60975 20.574 8.313 20.0715 8.9625 19.7573C9.0615 18.984 9.35325 18.4598 9.684 18.171C7.053 17.8778 4.31175 16.8293 4.31175 12.012C4.31175 10.6478 4.791 9.5355 5.59725 8.66625C5.46975 8.37375 5.043 7.0545 5.71575 5.29425C5.71575 5.29425 6.74625 4.983 8.9775 6.6105C9.96975 6.33975 11.022 6.20475 12.0743 6.20025C13.1265 6.20475 14.1788 6.33975 15.171 6.6105C17.4015 4.983 18.4312 5.29425 18.4312 5.29425C19.104 7.0545 18.6772 8.37375 18.5498 8.66625C19.356 9.5355 19.8353 10.6478 19.8353 12.012C19.8353 16.8398 17.0918 17.8733 14.4548 18.162C14.8673 18.5355 15.2445 19.2713 15.2445 20.3813C15.2445 21.8393 15.2288 22.911 15.2288 22.9793C15.2288 23.289 15.4448 23.652 16.0523 23.5425C20.817 21.8145 24.25 17.3025 24.25 12C24.25 5.37 18.63 0 12 0Z" 
    fill="white"/>
</svg>
